<?xml version="1.0" encoding="UTF-8" standalone="no" ?>
<!DOCTYPE svg PUBLIC "-//W3C//DTD SVG 1.1//EN" "http://www.w3.org/Graphics/SVG/1.1/DTD/svg11.dtd">
<svg xmlns="http://www.w3.org/2000/svg" xmlns:xlink="http://www.w3.org/1999/xlink" version="1.1" width="640" height="480" viewBox="0 0 640 480" xml:space="preserve">
<desc>Created with Fabric.js 3.6.6</desc>
<defs>
</defs>
<g transform="matrix(1 0 0 1 89.95 24.17)"  >
<path style="stroke: none; stroke-width: 0; stroke-dasharray: none; stroke-linecap: butt; stroke-dashoffset: 0; stroke-linejoin: miter; stroke-miterlimit: 4; fill: none; fill-rule: nonzero; opacity: 1;"  transform=" translate(-89.94, -25.17)" d="M 104.23 21.73 c -4.01 -2.86 -8.65 -4.3 -13.95 -4.3 c -5.74 0 -10.78 1.61 -15.11 4.84 c -2.72 2.01 -5.24 5.56 -7.56 10.64 h 44.67 c -1.36 -4.58 -4.05 -8.3 -8.06 -11.17 Z" stroke-linecap="round" />
</g>
<g transform="matrix(1 0 0 1 89.88 42.15)"  >
<linearGradient id="SVGID_15" gradientUnits="userSpaceOnUse" gradientTransform="matrix(1 0 0 1 0 0)"  x1="86.39" y1="70.13" x2="93.2" y2="15.15">
<stop offset="0%" style="stop-color:rgb(48,131,197);stop-opacity: 1"/>
<stop offset="3%" style="stop-color:rgb(0,120,187);stop-opacity: 1"/>
<stop offset="100%" style="stop-color:rgb(24,54,99);stop-opacity: 1"/>
</linearGradient>
<path style="stroke: none; stroke-width: 0; stroke-dasharray: none; stroke-linecap: butt; stroke-dashoffset: 0; stroke-linejoin: miter; stroke-miterlimit: 4; fill: url(#SVGID_15); fill-rule: nonzero; opacity: 1;"  transform=" translate(-89.87, -43.15)" d="M 132.91 42.92 h 0 c -0.43 -12.54 -4.47 -22.7 -12.1 -30.51 C 112.71 4.14 102.19 0 89.27 0 c -12.17 0 -22.3 4.14 -30.38 12.41 c -8.07 8.28 -12.1 18.68 -12.1 31.2 c 0 9.11 2.24 17.07 6.73 23.89 c 3.08 2.03 6.38 4.02 9.93 5.95 l 2 -1.72 c 1 -0.86 2.27 -1.34 3.58 -1.34 c 1.72 0 3.31 0.79 4.36 2.17 l 10.14 13.33 c 2.21 0.27 4.49 0.41 6.87 0.41 c 8.3 0 15.46 -1.47 21.5 -4.41 c 4.5 -2.19 8.52 -5.28 12.07 -9.25 c 2.2 -2.48 1.41 -5.35 -0.72 -6.35 l -10.16 -4.76 c -2.45 -1.15 -3.9 -0.57 -4.97 0.36 h 0 c -5.11 4.2 -11.06 6.3 -17.86 6.3 c -6.44 0 -11.73 -1.72 -15.88 -5.17 c -4.15 -3.45 -6.71 -8.08 -7.66 -13.92 h 60.6 c 3.01 0 5.47 -2.37 5.63 -5.35 v -0.03 c 0 -0.28 -0.02 -0.55 -0.03 -0.83 Z M 67.61 32.9 c 2.32 -5.08 4.84 -8.63 7.56 -10.64 c 4.33 -3.22 9.37 -4.84 15.11 -4.84 c 5.29 0 9.94 1.44 13.95 4.3 c 4.01 2.87 6.69 6.59 8.06 11.17 h -44.67 Z" stroke-linecap="round" />
</g>
<g transform="matrix(1 0 0 1 145.75 82.89)"  >
<linearGradient id="SVGID_16" gradientUnits="userSpaceOnUse" gradientTransform="matrix(1 0 0 1 0 0)"  x1="111.79" y1="61.75" x2="185.46" y2="140.17">
<stop offset="0%" style="stop-color:rgb(255,221,0);stop-opacity: 1"/>
<stop offset="100%" style="stop-color:rgb(246,135,31);stop-opacity: 1"/>
</linearGradient>
<path style="stroke: none; stroke-width: 0; stroke-dasharray: none; stroke-linecap: butt; stroke-dashoffset: 0; stroke-linejoin: miter; stroke-miterlimit: 4; fill: url(#SVGID_16); fill-rule: nonzero; opacity: 1;"  transform=" translate(-145.74, -83.89)" d="M 137.83 55.01 c -1.23 5.26 -3.29 10.17 -6.04 14.62 c 15.6 13.07 23.87 25.93 19.47 34.43 c -3.47 6.69 -14.25 8.72 -28.43 6.49 c 22.08 4.54 39.19 2.21 44.35 -7.75 c 6.07 -11.71 -7.13 -30.37 -29.34 -47.8 Z" stroke-linecap="round" />
</g>
<g transform="matrix(1 0 0 1 132.94 42.32)"  >
<linearGradient id="SVGID_17" gradientUnits="userSpaceOnUse" gradientTransform="matrix(1 0 0 1 0 0)"  x1="132.89" y1="43.33" x2="132.99" y2="43.33">
<stop offset="0%" style="stop-color:rgb(48,131,197);stop-opacity: 1"/>
<stop offset="100%" style="stop-color:rgb(29,62,110);stop-opacity: 1"/>
</linearGradient>
<path style="stroke: none; stroke-width: 0; stroke-dasharray: none; stroke-linecap: butt; stroke-dashoffset: 0; stroke-linejoin: miter; stroke-miterlimit: 4; fill: url(#SVGID_17); fill-rule: nonzero; opacity: 1;"  transform=" translate(-132.94, -43.32)" d="M 132.95 43.48 c 0 0.09 0 0.17 0 0.26 c 0 -0.28 -0.02 -0.55 -0.03 -0.83 c 0.02 0.19 0.04 0.37 0.04 0.57 Z" stroke-linecap="round" />
</g>
<g transform="matrix(1 0 0 1 89.95 24.17)"  >
<path style="stroke: none; stroke-width: 0; stroke-dasharray: none; stroke-linecap: butt; stroke-dashoffset: 0; stroke-linejoin: miter; stroke-miterlimit: 4; fill: none; fill-rule: nonzero; opacity: 1;"  transform=" translate(-89.94, -25.17)" d="M 104.23 21.73 c -4.01 -2.86 -8.65 -4.3 -13.95 -4.3 c -5.74 0 -10.78 1.61 -15.11 4.84 c -2.72 2.01 -5.24 5.56 -7.56 10.64 h 44.67 c -1.36 -4.58 -4.05 -8.3 -8.06 -11.17 Z" stroke-linecap="round" />
</g>
<g transform="matrix(1 0 0 1 90.17 23.56)"  >
<linearGradient id="SVGID_18" gradientUnits="userSpaceOnUse" gradientTransform="matrix(1 0 0 1 0 0)"  x1="81.42" y1="55.11" x2="100.81" y2="16.77">
<stop offset="0%" style="stop-color:rgb(0,130,200);stop-opacity: 1"/>
<stop offset="100%" style="stop-color:rgb(0,79,147);stop-opacity: 1"/>
</linearGradient>
<path style="stroke: none; stroke-width: 0; stroke-dasharray: none; stroke-linecap: butt; stroke-dashoffset: 0; stroke-linejoin: miter; stroke-miterlimit: 4; fill: url(#SVGID_18); fill-rule: nonzero; opacity: 1;"  transform=" translate(-90.17, -24.56)" d="M 127.31 49.12 c 3.01 0 5.47 -2.37 5.63 -5.35 v -0.03 c 0 -0.28 -0.02 -0.55 -0.03 -0.83 h 0 c -0.43 -12.54 -4.47 -22.7 -12.1 -30.51 C 112.71 4.14 102.19 0 89.27 0 c -12.17 0 -22.3 4.14 -30.38 12.41 c -6.26 6.42 -10.08 14.13 -11.49 23.11 c 18.35 0.95 43.35 4.14 64.9 13.61 h 15.01 Z M 67.61 32.9 c 2.32 -5.08 4.84 -8.63 7.56 -10.64 c 4.33 -3.22 9.37 -4.84 15.11 -4.84 c 5.29 0 9.94 1.44 13.95 4.3 c 4.01 2.87 6.69 6.59 8.06 11.17 h -44.67 Z" stroke-linecap="round" />
</g>
<g transform="matrix(1 0 0 1 86.92 70.55)"  >
<linearGradient id="SVGID_19" gradientUnits="userSpaceOnUse" gradientTransform="matrix(1 0 0 1 0 0)"  x1="90.14" y1="87.62" x2="78.04" y2="-4.53">
<stop offset="0%" style="stop-color:rgb(48,131,197);stop-opacity: 1"/>
<stop offset="3%" style="stop-color:rgb(0,120,187);stop-opacity: 1"/>
<stop offset="100%" style="stop-color:rgb(24,54,99);stop-opacity: 1"/>
</linearGradient>
<path style="stroke: none; stroke-width: 0; stroke-dasharray: none; stroke-linecap: butt; stroke-dashoffset: 0; stroke-linejoin: miter; stroke-miterlimit: 4; fill: url(#SVGID_19); fill-rule: nonzero; opacity: 1;"  transform=" translate(-86.91, -71.55)" d="M 123.22 66.31 l -10.16 -4.76 c -2.45 -1.15 -3.9 -0.57 -4.97 0.36 h 0 c -5.11 4.2 -11.06 6.3 -17.86 6.3 c -6.44 0 -11.74 -1.72 -15.88 -5.17 c -1.11 -0.92 -2.1 -1.92 -2.99 -3.02 c -8.76 -0.53 -16.34 -1.71 -22.79 -3.23 c 1.11 3.84 2.78 7.4 4.95 10.7 c 3.08 2.03 6.39 4.03 9.94 5.95 l 2 -1.72 c 1 -0.86 2.27 -1.34 3.58 -1.34 c 1.72 0 3.31 0.79 4.36 2.17 l 10.14 13.34 c 2.2 0.27 4.48 0.41 6.84 0.41 c 8.3 0 15.46 -1.47 21.5 -4.41 c 4.5 -2.19 8.52 -5.28 12.07 -9.25 c 2.2 -2.48 1.4 -5.35 -0.73 -6.35 Z" stroke-linecap="round" />
</g>
<g transform="matrix(1 0 0 1 96.92 23.56)"  >
<linearGradient id="SVGID_20" gradientUnits="userSpaceOnUse" gradientTransform="matrix(1 0 0 1 0 0)"  x1="135.63" y1="17.8" x2="79.63" y2="30.51">
<stop offset="0%" style="stop-color:rgb(0,130,200);stop-opacity: 1"/>
<stop offset="100%" style="stop-color:rgb(0,79,147);stop-opacity: 1"/>
</linearGradient>
<path style="stroke: none; stroke-width: 0; stroke-dasharray: none; stroke-linecap: butt; stroke-dashoffset: 0; stroke-linejoin: miter; stroke-miterlimit: 4; fill: url(#SVGID_20); fill-rule: nonzero; opacity: 1;"  transform=" translate(-96.92, -24.56)" d="M 132.91 43.77 v -0.03 c 0 -0.28 -0.01 -0.55 -0.02 -0.83 h 0 c -0.43 -12.54 -4.47 -22.7 -12.11 -30.51 C 112.68 4.14 102.17 0 89.25 0 c -11.17 0 -20.6 3.49 -28.32 10.45 c 7.38 1.28 15.6 3.54 24.08 7.47 c 1.67 -0.32 3.42 -0.49 5.25 -0.49 c 5.29 0 9.93 1.44 13.94 4.3 c 4.01 2.87 6.69 6.59 8.05 11.17 h -4.48 c 5.09 4.52 10.08 9.87 14.83 16.23 h 4.67 c 3.02 0 5.48 -2.37 5.62 -5.35 Z" stroke-linecap="round" />
</g>
<g transform="matrix(1 0 0 1 100.34 72.61)"  >
<linearGradient id="SVGID_21" gradientUnits="userSpaceOnUse" gradientTransform="matrix(1 0 0 1 0 0)"  x1="170.22" y1="95.76" x2="25.47" y2="51.32">
<stop offset="0%" style="stop-color:rgb(48,131,197);stop-opacity: 1"/>
<stop offset="3%" style="stop-color:rgb(0,120,187);stop-opacity: 1"/>
<stop offset="100%" style="stop-color:rgb(24,54,99);stop-opacity: 1"/>
</linearGradient>
<path style="stroke: none; stroke-width: 0; stroke-dasharray: none; stroke-linecap: butt; stroke-dashoffset: 0; stroke-linejoin: miter; stroke-miterlimit: 4; fill: url(#SVGID_21); fill-rule: nonzero; opacity: 1;"  transform=" translate(-100.33, -73.62)" d="M 123.22 66.31 l -10.16 -4.76 c -2.45 -1.15 -3.9 -0.57 -4.97 0.36 h 0 c -3.87 3.19 -8.24 5.16 -13.09 5.93 c -7 3.13 -13.53 5.54 -19.59 7.39 l 8.12 10.67 c 2.21 0.27 4.48 0.42 6.85 0.42 c 8.3 0 15.46 -1.47 21.5 -4.41 c 4.5 -2.19 8.52 -5.28 12.07 -9.25 c 2.2 -2.48 1.4 -5.35 -0.73 -6.35 Z" stroke-linecap="round" />
</g>
<g transform="matrix(1 0 0 1 115.5 73.08)"  >
<linearGradient id="SVGID_22" gradientUnits="userSpaceOnUse" gradientTransform="matrix(1 0 0 1 0 0)"  x1="724.4" y1="262.1" x2="-320.62" y2="-58.69">
<stop offset="0%" style="stop-color:rgb(48,131,197);stop-opacity: 1"/>
<stop offset="3%" style="stop-color:rgb(0,120,187);stop-opacity: 1"/>
<stop offset="100%" style="stop-color:rgb(24,54,99);stop-opacity: 1"/>
</linearGradient>
<path style="stroke: none; stroke-width: 0; stroke-dasharray: none; stroke-linecap: butt; stroke-dashoffset: 0; stroke-linejoin: miter; stroke-miterlimit: 4; fill: url(#SVGID_22); fill-rule: nonzero; opacity: 1;"  transform=" translate(-115.5, -74.09)" d="M 123.95 72.66 c 2.2 -2.48 1.4 -5.35 -0.73 -6.35 l -5.1 -2.4 c -2.34 5.62 -6.25 13.17 -12.38 20.35 c 2.17 -0.64 4.21 -1.43 6.14 -2.36 c 4.5 -2.19 8.52 -5.28 12.07 -9.25 Z" stroke-linecap="round" />
</g>
<g transform="matrix(1 0 0 1 83.19 10.34)"  >
<linearGradient id="SVGID_23" gradientUnits="userSpaceOnUse" gradientTransform="matrix(1 0 0 1 0 0)"  x1="96.57" y1="9.46" x2="65.62" y2="23.41">
<stop offset="0%" style="stop-color:rgb(0,130,200);stop-opacity: 1"/>
<stop offset="100%" style="stop-color:rgb(0,79,147);stop-opacity: 1"/>
</linearGradient>
<path style="stroke: none; stroke-width: 0; stroke-dasharray: none; stroke-linecap: butt; stroke-dashoffset: 0; stroke-linejoin: miter; stroke-miterlimit: 4; fill: url(#SVGID_23); fill-rule: nonzero; opacity: 1;"  transform=" translate(-83.19, -11.34)" d="M 85.01 17.91 c 1.67 -0.32 3.42 -0.49 5.25 -0.49 c 5.29 0 9.93 1.44 13.94 4.3 c 0.43 0.3 0.83 0.63 1.23 0.95 C 100.2 13.3 94.22 5.86 88.28 0.01 c -10.74 0.2 -19.86 3.68 -27.34 10.43 c 7.38 1.28 15.6 3.54 24.08 7.47 Z" stroke-linecap="round" />
</g>
<g transform="matrix(1 0 0 1 48.85 64.88)"  >
<linearGradient id="SVGID_24" gradientUnits="userSpaceOnUse" gradientTransform="matrix(1 0 0 1 0 0)"  x1="13.6" y1="39.64" x2="89.33" y2="93.86">
<stop offset="0%" style="stop-color:rgb(139,197,63);stop-opacity: 1"/>
<stop offset="100%" style="stop-color:rgb(0,143,76);stop-opacity: 1"/>
</linearGradient>
<path style="stroke: none; stroke-width: 0; stroke-dasharray: none; stroke-linecap: butt; stroke-dashoffset: 0; stroke-linejoin: miter; stroke-miterlimit: 4; fill: url(#SVGID_24); fill-rule: nonzero; opacity: 1;"  transform=" translate(-48.85, -65.88)" d="M 97.39 109.23 l -26.46 -34.78 c -0.84 -1.11 -2.39 -1.27 -3.44 -0.37 l -3.62 3.11 c -27.84 -14.65 -45.6 -35.48 -39.75 -46.76 c 3.01 -5.81 11.72 -7.95 23.28 -6.71 c 0.04 -0.2 0.04 -0.37 0.04 -0.53 C 24.78 18.44 7.04 20.89 1.64 31.3 c -7.6 14.67 11.82 40.3 44.66 60.99 l -5.78 4.97 c -1.37 1.21 0.45 3.04 1.8 3.33 l 54.2 10.27 c 1.21 0.19 1.48 -0.77 0.85 -1.62 Z" stroke-linecap="round" />
</g>
</svg>