<?xml version="1.0" encoding="UTF-8"?>
<svg id="Layer_1" data-name="Layer 1" xmlns="http://www.w3.org/2000/svg" xmlns:xlink="http://www.w3.org/1999/xlink" viewBox="0 0 566.93 123.66">
  <defs>
    <style>
      .cls-1 {
        fill: #53595b;
      }

      .cls-1, .cls-2, .cls-3, .cls-4, .cls-5, .cls-6, .cls-7, .cls-8, .cls-9, .cls-10, .cls-11, .cls-12, .cls-13, .cls-14 {
        stroke-width: 0px;
      }

      .cls-2 {
        fill: none;
      }

      .cls-3 {
        fill: #1b438b;
      }

      .cls-4 {
        fill: url(#linear-gradient);
      }

      .cls-5 {
        fill: url(#linear-gradient-10);
      }

      .cls-6 {
        fill: #008a4b;
      }

      .cls-7 {
        fill: url(#linear-gradient-4);
      }

      .cls-8 {
        fill: url(#linear-gradient-2);
      }

      .cls-9 {
        fill: url(#linear-gradient-3);
      }

      .cls-10 {
        fill: url(#linear-gradient-8);
      }

      .cls-11 {
        fill: url(#linear-gradient-9);
      }

      .cls-12 {
        fill: url(#linear-gradient-7);
      }

      .cls-13 {
        fill: url(#linear-gradient-5);
      }

      .cls-14 {
        fill: url(#linear-gradient-6);
      }
    </style>
    <linearGradient id="linear-gradient" x1="86.39" y1="70.13" x2="93.2" y2="15.15" gradientUnits="userSpaceOnUse">
      <stop offset="0" stop-color="#3083c5"/>
      <stop offset=".03" stop-color="#0078bb"/>
      <stop offset="1" stop-color="#183663"/>
    </linearGradient>
    <linearGradient id="linear-gradient-2" x1="111.79" y1="61.75" x2="185.46" y2="140.17" gradientUnits="userSpaceOnUse">
      <stop offset="0" stop-color="#fd0"/>
      <stop offset="1" stop-color="#f6871f"/>
    </linearGradient>
    <linearGradient id="linear-gradient-3" x1="132.89" y1="43.33" x2="132.99" y2="43.33" gradientUnits="userSpaceOnUse">
      <stop offset="0" stop-color="#3083c5"/>
      <stop offset="1" stop-color="#1d3e6e"/>
    </linearGradient>
    <linearGradient id="linear-gradient-4" x1="81.42" y1="55.11" x2="100.81" y2="16.77" gradientUnits="userSpaceOnUse">
      <stop offset="0" stop-color="#0082c8"/>
      <stop offset="1" stop-color="#004f93"/>
    </linearGradient>
    <linearGradient id="linear-gradient-5" x1="90.14" y1="87.62" x2="78.04" y2="-4.53" xlink:href="#linear-gradient"/>
    <linearGradient id="linear-gradient-6" x1="135.63" y1="17.8" x2="79.63" y2="30.51" xlink:href="#linear-gradient-4"/>
    <linearGradient id="linear-gradient-7" x1="170.22" y1="95.76" x2="25.47" y2="51.32" xlink:href="#linear-gradient"/>
    <linearGradient id="linear-gradient-8" x1="724.4" y1="262.1" x2="-320.62" y2="-58.69" xlink:href="#linear-gradient"/>
    <linearGradient id="linear-gradient-9" x1="96.57" y1="9.46" x2="65.62" y2="23.41" xlink:href="#linear-gradient-4"/>
    <linearGradient id="linear-gradient-10" x1="13.6" y1="39.64" x2="89.33" y2="93.86" gradientUnits="userSpaceOnUse">
      <stop offset="0" stop-color="#8bc53f"/>
      <stop offset="1" stop-color="#008f4c"/>
    </linearGradient>
  </defs>
  <g>
    <g>
      <path class="cls-3" d="M210.94,51.61c0,1.17-1.7,1.68-4.07,1.68s-4.15-.51-4.15-1.68v-11.21h-28.05v-6.99h61.89c1.26,0,1.71,1.24,1.71,3.5,0,2.54-.6,3.49-1.71,3.49h-25.61v11.21ZM194.28,23.95c-3.55,1.89-6.51,3.2-10.59,4.66-1.11.43-1.48-.37-2.44-2.47-1.04-2.33-1.41-3.13-.37-3.57,3.25-1.31,6.81-2.91,9.62-4.37,5.26-2.77,11.18-6.92,11.18-13.83V1.53h8.89v2.91c0,6.84,6,10.99,11.25,13.76,2.81,1.45,6.28,2.84,9.55,4.14,1.04.44.66,1.24-.37,3.57-.97,2.11-1.34,2.84-2.45,2.47-3.85-1.31-6.89-2.4-10.44-4.29-4.29-2.25-9.25-5.68-11.99-10.05-2.66,4.37-7.54,7.65-11.84,9.9ZM192.44,68.28c-1.63,0-4.08-1.67-5.63-3.27-1.48-1.46-2.89-3.57-2.89-4.88v-13.9h8.22v12.59c0,1.6.88,2.4,2.29,2.4h32.79c1.26,0,1.78,1.31,1.78,3.57,0,2.55-.66,3.49-1.78,3.49h-34.79Z"/>
      <path class="cls-3" d="M241.29,44.99v-6.99h17.17v-5.97c-6.81-1.39-11.03-6.33-11.03-12.08,0-2.18.59-4.29,1.78-6.19h-6.45v-6.84h15.25V0h8.52v6.92h14.06c1.26,0,1.78,1.17,1.78,3.49s-.52,3.35-1.78,3.35h-4.66c1.18,1.9,1.85,4.01,1.85,6.19,0,5.82-4.3,10.7-11.11,12.16v5.9h16.58c1.25,0,1.78,1.16,1.78,3.49s-.44,3.49-1.78,3.49h-41.97ZM260.09,68.28c-1.63,0-4.07-1.67-5.62-3.27-1.48-1.46-2.89-3.57-2.89-4.88v-11.28h8.22v9.97c0,1.6.89,2.4,2.3,2.4h34.28c1.25,0,1.77,1.31,1.77,3.57,0,2.55-.67,3.49-1.77,3.49h-36.28ZM262.69,13.75c-5.04,0-7.33,2.99-7.33,6.19s2.44,6.04,7.25,6.04,7.26-2.77,7.26-6.04-2.29-6.19-7.17-6.19ZM296.66,48.7c0,1.24-1.85,1.67-4.14,1.67-2.59,0-4.08-.58-4.08-1.67V1.96h8.22v19.37h10.15v7.06h-10.15v20.32Z"/>
      <path class="cls-6" d="M331.97,14.78h-21.17v-7.06h23.46c1.85,0,3.55,1.74,5.55,4.29,1.86,2.41,2.67,4.3,2.67,5.61,0,2.4-.37,4.51-.97,6.55h12.8V2.69h8.22v59.92c0,1.16-1.78,1.67-4.15,1.67s-4.08-.51-4.08-1.67v-31.46h-16.06c-1.85,2.77-4.07,5.17-6.52,7.36-4.73,4.29-10.81,8.81-17.17,12.3-1.03.58-1.85.37-3.48-2.04-1.56-2.25-2.22-3.34-1.11-4,6.59-3.93,12.21-7.72,16.88-12.09,4.88-4.52,7.41-9.02,7.41-15.22,0-1.67-.52-2.69-2.3-2.69Z"/>
      <path class="cls-6" d="M428.43,62.61c0,1.16-1.7,1.67-4.07,1.67s-4.15-.51-4.15-1.67v-31.67h-12.5v13.69c0,2.98-1.41,4.73-4.45,4.73h-20.51c-1.62,0-4.06-1.6-5.62-3.2-1.48-1.46-2.88-3.57-2.88-4.88V7.35h8.22v14.12h17.02V7.35h8.22v16.53h12.5V2.69h8.22v59.92ZM399.48,42.29v-13.76h-17.02v11.36c0,1.89.74,2.4,2.37,2.4h14.65Z"/>
      <path class="cls-6" d="M449.37,37.05c-1.62,0-4.07-1.67-5.62-3.28-1.48-1.45-2.88-3.57-2.88-4.87V4.37h8.22v23.66c0,1.38.37,2.04,1.92,2.04h23.47c1.26,0,1.78,1.24,1.78,3.49s-.52,3.5-1.78,3.5h-25.1ZM460.04,68.28c-1.63,0-4.08-1.67-5.63-3.27-1.48-1.46-2.89-3.57-2.89-4.88v-15.65h8.22v14.34c0,1.6.89,2.4,2.29,2.4h31.24c1.26,0,1.78,1.31,1.78,3.57,0,2.55-.67,3.49-1.78,3.49h-33.23ZM493.57,46.52c0,1.24-1.93,1.67-4.22,1.67-2.59,0-4-.58-4-1.67v-26.72h-17.62v-6.99h17.62V1.96h8.22v44.56Z"/>
      <path class="cls-6" d="M503.34,58.31v-7.06h61.81c1.26,0,1.78,1.23,1.78,3.56s-.52,3.5-1.78,3.5h-61.81ZM535.1,22.93c-3.85,6.84-14.43,13.9-21.69,17.11-1.11.51-1.85-.66-3.18-2.54-1.56-2.19-1.79-3.13-.82-3.64,8.59-4.44,15.33-9.1,18.51-14.05,2.22-3.42,2.44-6.41,2.44-9.4v-4.51h8.88v4.8c0,3.2.14,5.61,2.52,9.1,3.55,5.24,11.91,10.48,18.43,13.46,1.03.51.81,1.38-.45,3.57-1.19,2.11-1.71,2.92-2.81,2.48-7.62-2.84-17.84-9.25-21.84-16.38Z"/>
    </g>
    <g>
      <g>
        <path class="cls-2" d="M104.23,21.73c-4.01-2.86-8.65-4.3-13.95-4.3-5.74,0-10.78,1.61-15.11,4.84-2.72,2.01-5.24,5.56-7.56,10.64h44.67c-1.36-4.58-4.05-8.3-8.06-11.17Z"/>
        <path class="cls-4" d="M132.91,42.92h0c-.43-12.54-4.47-22.7-12.1-30.51C112.71,4.14,102.19,0,89.27,0c-12.17,0-22.3,4.14-30.38,12.41-8.07,8.28-12.1,18.68-12.1,31.2,0,9.11,2.24,17.07,6.73,23.89,3.08,2.03,6.38,4.02,9.93,5.95l2-1.72c1-.86,2.27-1.34,3.58-1.34,1.72,0,3.31.79,4.36,2.17l10.14,13.33c2.21.27,4.49.41,6.87.41,8.3,0,15.46-1.47,21.5-4.41,4.5-2.19,8.52-5.28,12.07-9.25,2.2-2.48,1.41-5.35-.72-6.35l-10.16-4.76c-2.45-1.15-3.9-.57-4.97.36h0c-5.11,4.2-11.06,6.3-17.86,6.3-6.44,0-11.73-1.72-15.88-5.17-4.15-3.45-6.71-8.08-7.66-13.92h60.6c3.01,0,5.47-2.37,5.63-5.35v-.03c0-.28-.02-.55-.03-.83ZM67.61,32.9c2.32-5.08,4.84-8.63,7.56-10.64,4.33-3.22,9.37-4.84,15.11-4.84,5.29,0,9.94,1.44,13.95,4.3,4.01,2.87,6.69,6.59,8.06,11.17h-44.67Z"/>
      </g>
      <g>
        <path class="cls-8" d="M137.83,55.01c-1.23,5.26-3.29,10.17-6.04,14.62,15.6,13.07,23.87,25.93,19.47,34.43-3.47,6.69-14.25,8.72-28.43,6.49,22.08,4.54,39.19,2.21,44.35-7.75,6.07-11.71-7.13-30.37-29.34-47.8Z"/>
        <g>
          <g>
            <path class="cls-9" d="M132.95,43.48c0,.09,0,.17,0,.26,0-.28-.02-.55-.03-.83.02.19.04.37.04.57Z"/>
            <g>
              <path class="cls-2" d="M104.23,21.73c-4.01-2.86-8.65-4.3-13.95-4.3-5.74,0-10.78,1.61-15.11,4.84-2.72,2.01-5.24,5.56-7.56,10.64h44.67c-1.36-4.58-4.05-8.3-8.06-11.17Z"/>
              <path class="cls-7" d="M127.31,49.12c3.01,0,5.47-2.37,5.63-5.35v-.03c0-.28-.02-.55-.03-.83h0c-.43-12.54-4.47-22.7-12.1-30.51C112.71,4.14,102.19,0,89.27,0c-12.17,0-22.3,4.14-30.38,12.41-6.26,6.42-10.08,14.13-11.49,23.11,18.35.95,43.35,4.14,64.9,13.61h15.01ZM67.61,32.9c2.32-5.08,4.84-8.63,7.56-10.64,4.33-3.22,9.37-4.84,15.11-4.84,5.29,0,9.94,1.44,13.95,4.3,4.01,2.87,6.69,6.59,8.06,11.17h-44.67Z"/>
              <path class="cls-13" d="M123.22,66.31l-10.16-4.76c-2.45-1.15-3.9-.57-4.97.36h0c-5.11,4.2-11.06,6.3-17.86,6.3-6.44,0-11.74-1.72-15.88-5.17-1.11-.92-2.1-1.92-2.99-3.02-8.76-.53-16.34-1.71-22.79-3.23,1.11,3.84,2.78,7.4,4.95,10.7,3.08,2.03,6.39,4.03,9.94,5.95l2-1.72c1-.86,2.27-1.34,3.58-1.34,1.72,0,3.31.79,4.36,2.17l10.14,13.34c2.2.27,4.48.41,6.84.41,8.3,0,15.46-1.47,21.5-4.41,4.5-2.19,8.52-5.28,12.07-9.25,2.2-2.48,1.4-5.35-.73-6.35Z"/>
            </g>
          </g>
          <path class="cls-14" d="M132.91,43.77v-.03c0-.28-.01-.55-.02-.83h0c-.43-12.54-4.47-22.7-12.11-30.51C112.68,4.14,102.17,0,89.25,0c-11.17,0-20.6,3.49-28.32,10.45,7.38,1.28,15.6,3.54,24.08,7.47,1.67-.32,3.42-.49,5.25-.49,5.29,0,9.93,1.44,13.94,4.3,4.01,2.87,6.69,6.59,8.05,11.17h-4.48c5.09,4.52,10.08,9.87,14.83,16.23h4.67c3.02,0,5.48-2.37,5.62-5.35Z"/>
          <path class="cls-12" d="M123.22,66.31l-10.16-4.76c-2.45-1.15-3.9-.57-4.97.36h0c-3.87,3.19-8.24,5.16-13.09,5.93-7,3.13-13.53,5.54-19.59,7.39l8.12,10.67c2.21.27,4.48.42,6.85.42,8.3,0,15.46-1.47,21.5-4.41,4.5-2.19,8.52-5.28,12.07-9.25,2.2-2.48,1.4-5.35-.73-6.35Z"/>
          <path class="cls-10" d="M123.95,72.66c2.2-2.48,1.4-5.35-.73-6.35l-5.1-2.4c-2.34,5.62-6.25,13.17-12.38,20.35,2.17-.64,4.21-1.43,6.14-2.36,4.5-2.19,8.52-5.28,12.07-9.25Z"/>
          <path class="cls-11" d="M85.01,17.91c1.67-.32,3.42-.49,5.25-.49,5.29,0,9.93,1.44,13.94,4.3.43.3.83.63,1.23.95C100.2,13.3,94.22,5.86,88.28.01c-10.74.2-19.86,3.68-27.34,10.43,7.38,1.28,15.6,3.54,24.08,7.47Z"/>
        </g>
      </g>
      <path class="cls-5" d="M97.39,109.23l-26.46-34.78c-.84-1.11-2.39-1.27-3.44-.37l-3.62,3.11c-27.84-14.65-45.6-35.48-39.75-46.76,3.01-5.81,11.72-7.95,23.28-6.71.04-.2.04-.37.04-.53C24.78,18.44,7.04,20.89,1.64,31.3c-7.6,14.67,11.82,40.3,44.66,60.99l-5.78,4.97c-1.37,1.21.45,3.04,1.8,3.33l54.2,10.27c1.21.19,1.48-.77.85-1.62Z"/>
    </g>
  </g>
  <g>
    <path class="cls-1" d="M188.07,98.99c0-10.56,7.63-15.77,16.21-15.77,3.5,0,6.23.79,8.23,1.86.68.38.94.71.21,2.24-.69,1.45-1.03,1.57-1.71,1.32-2.34-.87-4.14-1.41-6.69-1.41-6.78,0-11.47,5.13-11.47,11.76s4.35,11.84,11.47,11.84c2.55,0,4.35-.54,6.69-1.41.69-.25,1.02-.25,1.71,1.29.68,1.61.47,1.81-.21,2.19-2.01,1.08-4.74,1.94-8.23,1.94-10.33,0-16.21-6.79-16.21-15.85Z"/>
    <path class="cls-1" d="M219.13,123.66c-.73,0-1.07-.58-1.07-1.95s.34-1.9,1.07-1.9h1.24c2.34,0,4.48-1.37,5.33-3.77l.55-1.54c-.98-.2-1.58-.74-2.01-1.94l-7.46-20.21h4.73l4.56,13.08c.55,1.66,1.11,3.14,1.75,5.01h.05c.68-1.87,1.2-3.35,1.75-5.01l4.56-13.08h4.78l-8.91,24.31c-1.49,3.97-4.39,6.99-9.6,6.99h-1.32Z"/>
    <path class="cls-1" d="M252.96,95.63c-4.57,0-7.25,3.4-7.25,7.66s2.61,7.7,7.17,7.7c1.92,0,3.85-.37,5.33-.82.68-.21,1.16-.17,1.75,1.37.6,1.69.39,1.78-.25,2.15-1.41.75-4.69,1.16-6.87,1.16-7,0-11.77-4.34-11.77-11.51s5.12-11.55,11.86-11.55c2.22,0,4.78.41,6.1,1,.72.29.9.62.25,2.11-.65,1.49-1.03,1.57-1.75,1.33-1.07-.29-3.03-.58-4.57-.58Z"/>
    <path class="cls-1" d="M264.82,82.92h4.65v30.8c0,.71-.94.95-2.3.95-1.54,0-2.35-.33-2.35-.95v-30.8Z"/>
    <path class="cls-1" d="M274.38,103.34c0-7.12,4.64-11.55,10.79-11.55,7.55,0,10.75,5.47,10.75,11.97,0,1.15-.64,1.66-1.53,1.66h-15.28c.3,3.88,3.93,5.59,7.81,5.59,1.96,0,3.75-.54,5.37-1.08.73-.25,1.11-.12,1.75,1.37.6,1.41.47,1.74-.25,2.11-1.5.87-4.53,1.45-6.7,1.45-7.29,0-12.71-3.52-12.71-11.51ZM291.14,101.43c-.21-3.68-2.6-5.8-5.97-5.8-3.93,0-5.84,2.9-6.1,5.8h12.07Z"/>
    <path class="cls-1" d="M341.18,108.89c0,.78-.64,2.15-2,3.39-1.49,1.37-2.81,2.03-3.8,2.03h-4.61c-9.94,0-16.3-5.84-16.3-15.61s7.72-15.48,16.77-15.48c3.54,0,6.19.58,8.28,1.48.76.34.86.71.25,2.11-.64,1.53-1.02,1.57-1.75,1.36-2.04-.57-4.22-.95-6.74-.95-7.63,0-11.99,5.13-11.99,11.46,0,6.84,4.23,11.6,11.43,11.6h4.27c1.07,0,1.41-.54,1.41-1.4v-7.87h-7.63v-4.02h12.41v11.89Z"/>
    <path class="cls-1" d="M346.09,103.34c0-6.38,4.27-11.55,11.52-11.55s11.56,5.17,11.56,11.55-4.31,11.51-11.56,11.51-11.52-5.09-11.52-11.51ZM364.52,103.34c0-4.18-2.56-7.7-6.91-7.7s-6.87,3.52-6.87,7.7,2.51,7.7,6.87,7.7,6.91-3.48,6.91-7.7Z"/>
    <path class="cls-1" d="M382.69,110.41c.64-1.86,1.19-3.36,1.75-5.01l4.52-13.04h4.74l-7.42,20.21c-.65,1.7-1.54,2.11-3.67,2.11-2.01,0-2.9-.41-3.58-2.11l-7.43-20.21h4.78l4.53,13.04c.55,1.65,1.06,3.14,1.75,5.01h.04Z"/>
    <path class="cls-1" d="M396.3,103.34c0-7.12,4.65-11.55,10.79-11.55,7.55,0,10.75,5.47,10.75,11.97,0,1.15-.64,1.66-1.53,1.66h-15.27c.3,3.88,3.93,5.59,7.81,5.59,1.96,0,3.75-.54,5.37-1.08.72-.25,1.11-.12,1.75,1.37.6,1.41.47,1.74-.26,2.11-1.49.87-4.52,1.45-6.69,1.45-7.3,0-12.72-3.52-12.72-11.51ZM413.07,101.43c-.21-3.68-2.6-5.8-5.97-5.8-3.92,0-5.84,2.9-6.1,5.8h12.07Z"/>
    <path class="cls-1" d="M432.31,96.22c-2.69,0-5.07,2.36-5.07,4.55v12.96c0,.71-.98.95-2.26.95-1.45,0-2.39-.33-2.39-.95v-21.36h4.65v3.06h.04c1.07-1.86,2.94-3.06,5.37-3.06h4.23c.77,0,1.06.42,1.06,1.94,0,1.41-.29,1.91-1.06,1.91h-4.57Z"/>
    <path class="cls-1" d="M442.08,92.36h4.48v2.15c.99-1.2,3.42-2.73,6.96-2.73,4.78,0,8.15,3.4,8.15,8.11v13.83c0,.71-.94.95-2.31.95s-2.35-.24-2.35-.95v-14.28c0-2.7-2.56-3.81-5.16-3.81s-5.11,1.45-5.11,2.94v15.16c0,.71-.94.95-2.3.95s-2.35-.24-2.35-.95v-21.36Z"/>
    <path class="cls-1" d="M470.03,96.22c-.73,0-1.02-.54-1.02-1.95s.3-1.9,1.02-1.9h7.8c5.76,0,8.15,2.11,8.15,7.74v13.62c0,.71-.89.95-2.26.95-1.53,0-2.39-.33-2.39-.95v-.08c-2.04.86-5,1.45-7.21,1.45-4.39,0-8.02-2.23-8.02-7.41,0-4.88,3.88-7.7,9.04-7.7,2.26,0,4.52.5,6.18.96v-1.04c0-2.48-1.11-3.68-3.8-3.68h-7.51ZM470.75,107.64c0,1.99,1.28,3.6,3.92,3.6,2.44,0,4.83-.62,6.66-1.28v-5.22c-1.79-.5-3.84-.91-5.97-.91-2.99,0-4.61,1.41-4.61,3.81Z"/>
    <path class="cls-1" d="M491.66,92.36h4.48v2.15c.99-1.2,3.41-2.73,6.96-2.73,4.77,0,8.15,3.4,8.15,8.11v13.83c0,.71-.94.95-2.3.95s-2.35-.24-2.35-.95v-14.28c0-2.7-2.57-3.81-5.17-3.81s-5.12,1.45-5.12,2.94v15.16c0,.71-.94.95-2.3.95s-2.34-.24-2.34-.95v-21.36Z"/>
    <path class="cls-1" d="M528.01,95.63c-4.57,0-7.26,3.4-7.26,7.66s2.6,7.7,7.17,7.7c1.92,0,3.84-.37,5.33-.82.68-.21,1.15-.17,1.75,1.37.6,1.69.38,1.78-.26,2.15-1.4.75-4.69,1.16-6.86,1.16-7,0-11.78-4.34-11.78-11.51s5.12-11.55,11.86-11.55c2.22,0,4.78.41,6.1,1,.73.29.89.62.26,2.11-.65,1.49-1.03,1.57-1.76,1.33-1.06-.29-3.03-.58-4.56-.58Z"/>
    <path class="cls-1" d="M538.93,103.34c0-7.12,4.65-11.55,10.8-11.55,7.55,0,10.75,5.47,10.75,11.97,0,1.15-.64,1.66-1.54,1.66h-15.27c.3,3.88,3.93,5.59,7.81,5.59,1.96,0,3.75-.54,5.37-1.08.72-.25,1.11-.12,1.75,1.37.6,1.41.47,1.74-.25,2.11-1.5.87-4.52,1.45-6.7,1.45-7.29,0-12.71-3.52-12.71-11.51ZM555.69,101.43c-.22-3.68-2.6-5.8-5.97-5.8-3.93,0-5.84,2.9-6.1,5.8h12.07Z"/>
  </g>
</svg>